<svg xmlns="http://www.w3.org/2000/svg" width="523.094" height="492.094" viewBox="0 0 523.094 492.094">
  <metadata><?xpacket begin="﻿" id="W5M0MpCehiHzreSzNTczkc9d"?>
<x:xmpmeta xmlns:x="adobe:ns:meta/" x:xmptk="Adobe XMP Core 5.6-c142 79.160924, 2017/07/13-01:06:39        ">
   <rdf:RDF xmlns:rdf="http://www.w3.org/1999/02/22-rdf-syntax-ns#">
      <rdf:Description rdf:about=""
            xmlns:xmp="http://ns.adobe.com/xap/1.0/">
         <xmp:CreatorTool>Adobe Photoshop CC (Windows)</xmp:CreatorTool>
      </rdf:Description>
   </rdf:RDF>
</x:xmpmeta>
                                                                                                    
                                                                                                    
                                                                                                    
                                                                                                    
                                                                                                    
                                                                                                    
                                                                                                    
                                                                                                    
                                                                                                    
                                                                                                    
                                                                                                    
                                                                                                    
                                                                                                    
                                                                                                    
                                                                                                    
                                                                                                    
                                                                                                    
                                                                                                    
                                                                                                    
                                                                                                    
                           
<?xpacket end="w"?></metadata>
<defs>
    <style>
      .cls-1 {
        fill: #fff;
        fill-rule: evenodd;
      }
    </style>
  </defs>
  <path id="形状_16" data-name="形状 16" class="cls-1" d="M212.243,493.911a12.045,12.045,0,0,1-10.212-4.834q-3.64-4.833-3.639-18.306,0-24.046,13.992-24.047a11.985,11.985,0,0,1,8.728,3.686q3.71,3.685,3.71,11.963l27.631-1.269q-1.344-14.983-11.625-24.047T211.4,428q-20.495,0-31.942,11.9t-11.448,31.3q0,19.575,12.084,30.692T211.819,513q16.325,0,27.525-8.1t13.109-23.261l-27.066-1.39q-1.415,13.656-13.144,13.655h0Zm109.035-64.648v30.33H298.664v-30.33h-29.61v82.471h29.61V479.652h22.614v32.082h29.609V429.263H321.278ZM456.83,511.734l-30.253-82.471H395.271l-29.779,82.471H389.53l5.792-16.252h25.841l5.451,16.252H456.83Zm-48.672-58.181,7.8,23.924H400.356ZM546.2,501.161q12.789-11.841,12.79-31.478,0-18.971-12.684-30.33T513.482,428q-21.766,0-34.026,12.053T467.2,470.589q0,19.335,12.826,30.874T513.2,513Q533.41,513,546.2,501.161Zm-47.136-29.907q0-24.529,14.558-24.53,13.5,0,13.5,21.509,0,14.863-3.286,20.452t-10.777,5.588q-13.992,0-13.992-23.019h0ZM53,221s-4-21.6-4-26-1.142-11.923-1-15,0.148-9.538,1-14,4.156-12.427,4-14a27.268,27.268,0,0,1,2-12c2.119-4.53,2.034-6.051,4-7s8-2,8-2,3.5,5.906,6-4,2.507-14.556,4-18,3.8-9.154,5-11,12.3-7.026,20-7,26.253,0.829,36,0,14.6-1.462,25-2,21.542-2.316,32-1,17.159,2.427,23,7,11.762,13.479,15,18,7.922,11.222,9,13-7.185-.769,4,2,8.113,10.923,12,3,5-10,5-10,0.715-1.786,6,1,12.181,3.846,16,14,3.188,13.179,5,20,3.623,7.778,4,12,6.768,15.436,4,25a80.322,80.322,0,0,0-3,18c1.71-18.376,5.493-26.795,5-33s0.493-8.684,0-13,0.2-5.034-1-16-2.659-13.786-3-19-0.514-2.547,0-12,3.2-19.162,1-22a74.7,74.7,0,0,1-9-14c-3.883-7.641-9.14-13.675-11-16s-5.04-5.282-12-10-7.68-7.316-21-12-8.313-6.051-23-9-16.534-6.641-31-8-15.61-6.795-30-6-12.968.231-28,5-21.456,1.846-30,11S86.911,57.795,78,68,67.721,76.6,59,93s-11.874,14.179-15,42-6,23.291-2,45,5.721,35.35,7,39,3,4,3,4m87-36,19,18s3.444,22.241,3,25-11,21-11,21-4.1,9.915-5,13-4.989,9.041-6,11-6.758,4.273-6,1,1.72-1.442,5-8,3.548-8.395,6-15,1.548-10.818,2-16,1.548-7.182,1-13-1.691-6.9-3-12-6.7-13.26-8-16,4.234-.677-3-5-15.116-6.856-10-7S139,187,139,187Zm5-14s0.346-3.226-12-7-11.788-6.577-21-4-7.274,2.37-16,6-17.154,5.436-12,9-2.318,4.078,8,1,19.107-2.571,22-4,5.122-1.16,12-2S144,173,144,173Zm58,3,13-5s2.761-3.537,6-4,17-5,17-5,3.643-.382,4,0-0.84-1.7,3,2,7.511,8.482,9,9,1.187,0.823,3,2a11.589,11.589,0,0,1,3,3,1.546,1.546,0,0,1-2,1c-1.68-.33,2.646-0.673-6-1s-7.553.161-14,0a94.941,94.941,0,0,0-18,1c-6.732,1-4.625-.5-10,1s-4.641,1.839-8,2-2.48,3-4,0-3.8-.676-1-3A16.342,16.342,0,0,1,202,176Zm0,34s2.559-3.893,5-5,9.635-2.7,12-3,9.71-.676,12,0,18,7,18,7l3,4-3,3-7-5s-0.073-2-5-2-5.635-1.273-11-1-4.225-.462-11,1-7.088,2.1-9,3-0.734,2.185-4,3-6.734-1.949-5-3A26.943,26.943,0,0,1,202,210Zm16,7s0.444,0.319,3,2,3.361,2.265,6,1,2.874-3.139,3-5-2-3-2-3l-1-2s-0.122-1-3-1-8,0-8,0-2.5.645-1,3S218,217,218,217ZM93,210s2.559-3.893,5-5,9.635-2.7,12-3,9.71-.676,12,0,18,7,18,7l3,4-3,3-7-5s-0.073-2-5-2-5.635-1.273-11-1-4.225-.462-11,1-7.088,2.1-9,3-0.734,2.185-4,3-6.734-1.949-5-3A26.943,26.943,0,0,1,93,210Zm16,7s0.444,0.319,3,2,3.361,2.265,6,1,2.874-3.139,3-5-2-3-2-3l-1-2s-0.122-1-3-1-8,0-8,0-2.5.645-1,3S109,217,109,217ZM56,231c-1.5-.213-9.712-6.779-11-6s-4.859,4.966-5,10-4.776,14.766-4,23,5.131,30.943,7,35,2.663,6.623,4,9,2.736,5.549,3,3-1.108-4.277-1-9,0.59,2.3-1-12-2.483-13.3-3-19-3.025-7.2-1-13,2.121-5.337,4-10,3.111-6.181,5-6S57.5,231.213,56,231Zm-3,26a14.537,14.537,0,0,0-1,4c-0.194,2.151-2.962,4.6-1,8s5,10,5,10,1.955,4.234,1-6-1-14-1-14Zm241-12s7.167,4.546,6,10-5,17-5,17-4.511,7.069-4,2S294,245,294,245Zm-1-15,9-2s6.3,2.663,6,6-0.926,9.031-1,11-6,35-6,35l-9,9s-5.53,7.19,2,3-12.52,6.558-5,6,7.855,0.484,10-1,4.845-2.334,6-10,2.918-15.766,3-20,4.762-38.467,3-41-14-6-14-6-5.281,3.451-5,5S293,230,293,230ZM136,328s9.079-3.256,11-4,15-4,15-4h5s4.332,0.67,7,1,11.532-1.945,15-1,14,4,14,4l9,1s24.708,2.038-3,4-30.565,3.194-38,2-8.472-1.265-12-2-14-2-14-2Zm6,6,7,3s6.133,2.865,9,4,13.864,5.4,18,5,14.907,1.406,18-2,14.356-11.274,12-11-9.99,2.644-16,3-8.116-.741-14,0-4.389.947-14,2S142,334,142,334ZM94,366s7.9,9.184,17,15,28.555,17.9,39,19,36,10,36,10,21.623,0.9,3,5-10.134,3.277-24,4-16.132,1.414-24,2-28-1-28-1,4.559,7.859,8,10,15.387,1.376,6,3-15,2-15,2l-1,7s-0.2,2.612-3,6-12.992.952-2,9,21.146,16.018,17,17,3.114,16.4-12,0-25.713-28.9-26-36-3.575-8.2-1-21,5.7-28.09,6-31S94,366,94,366ZM74,427s-8.571-2.036-16,0-14.363,11.683-14,14-1.812,5.677,3,13,11.048,15.292,16,20,0.15,1.012,10,10,24,18,24,18l12,7c-8.07-11.8-5.369-10.675-8-18s0.838-.323-4-15-7.85-14.421-11-22-9-23-9-23Zm79-148s6.307,1.374,6,3,5.1,2.642,1,4-13-5-13-5Zm29-2s5.544-.28,6,1,1.368,5.461,2,6,3.9,2.917,0,2-7-2-7-2l-4-1,2-5Z" transform="translate(-35.906 -20.906)"/>
</svg>
