<svg version="1.1" id="Layer_1" xmlns="http://www.w3.org/2000/svg" xmlns:xlink="http://www.w3.org/1999/xlink" x="0px" y="0px"
	 viewBox="0 0 500 223.1" enable-background="new 0 0 500 223.1" xml:space="preserve">
<g>
	<path d="M123,97.5c-3.5-3.1-7.4-5.4-11.9-7c-4.4-1.6-8.9-2.4-13.5-2.4c-5.4,0-10.3,1-15,3.1c-4.6,2.1-8.6,4.9-12,8.5
		c-3.4,3.6-6.1,7.7-8,12.5c-2,4.8-2.9,9.8-2.9,15.2c0,5.3,1,10.3,2.9,15c1.9,4.7,4.6,8.9,8,12.4c3.4,3.6,7.4,6.4,12,8.5
		c4.6,2.1,9.6,3.1,14.9,3.1c4.8,0,9.3-0.8,13.7-2.5c4.4-1.7,8.4-4.2,11.9-7.4v14.2c-3.7,2.2-7.8,3.9-12.2,5c-4.4,1.1-8.8,1.7-13,1.7
		c-6.9,0-13.4-1.3-19.4-3.8c-6.1-2.6-11.4-6.1-15.9-10.5c-4.5-4.5-8.1-9.7-10.8-15.7c-2.6-6-4-12.5-4-19.5c0-7.1,1.3-13.8,4-20
		c2.7-6.2,6.3-11.5,11-16.1c4.6-4.5,10-8.1,16.3-10.7c6.2-2.6,12.8-3.9,19.9-3.9c4.2,0,8.4,0.5,12.6,1.6c4.1,1.1,8,2.7,11.7,4.9
		V97.5z" stroke-linecap="null" stroke-linejoin="null" stroke-dasharray="null" stroke-width="1" stroke="#000000" />
	<path d="M194,117.9V79.1h12v96.1h-12v-46.2h-45.8v46.2h-12V79.1h12v38.8H194z" stroke-linecap="null" stroke-linejoin="null" stroke-dasharray="null" stroke-width="1" stroke="#000000" />
	<path d="M236.9,151.1l-11,24.1h-12.9L259,75l45.9,100.2H292l-11-24.1H236.9z M259,101.3l-17.1,38.9h34.2L259,101.3z" stroke-linecap="null" stroke-linejoin="null" stroke-dasharray="null" stroke-width="1" stroke="#000000" />
	<path d="M356.5,77.1c6.9,0,13.4,1.3,19.5,4c6.1,2.6,11.5,6.2,16,10.8c4.5,4.5,8.2,9.9,10.8,15.9c2.7,6.1,4,12.6,4,19.4
		c0,7.1-1.3,13.8-4,19.9c-2.6,6.1-6.2,11.4-10.8,15.9c-4.5,4.5-9.9,8-16,10.5c-6.1,2.5-12.7,3.8-19.6,3.8c-7,0-13.5-1.3-19.6-3.8
		c-6.1-2.6-11.5-6.1-16-10.5c-4.5-4.5-8.1-9.8-10.8-15.9c-2.6-6.1-4-12.7-4-19.9c0-6.9,1.3-13.4,4-19.4c2.7-6.1,6.3-11.4,10.8-15.9
		c4.5-4.5,9.9-8.1,16-10.8C343.1,78.4,349.6,77.1,356.5,77.1z M356.5,166c5.2,0,10.1-1,14.7-3c4.6-2,8.7-4.7,12.2-8.2
		c3.5-3.5,6.3-7.6,8.4-12.3c2-4.7,3.1-9.8,3.1-15.4c0-5.3-0.9-10.3-2.8-15c-1.9-4.7-4.5-8.8-7.9-12.4c-3.4-3.5-7.5-6.3-12.2-8.4
		c-4.7-2.1-9.9-3.1-15.5-3.1c-5.6,0-10.8,1-15.5,3.1c-4.7,2.1-8.8,4.9-12.2,8.4c-3.4,3.5-6,7.6-7.9,12.4c-1.9,4.7-2.8,9.7-2.8,15
		c0,5.5,1,10.6,3.1,15.4c2,4.7,4.8,8.8,8.4,12.3c3.5,3.5,7.6,6.2,12.2,8.2C346.4,165,351.3,166,356.5,166z" stroke-linecap="null" stroke-linejoin="null" stroke-dasharray="null" stroke-width="1" stroke="#000000" />
</g>
<circle cx="433.8" cy="56.8" r="12"  stroke-linecap="null" stroke-linejoin="null" stroke-dasharray="null" stroke-width="1" stroke="#000000" />
</svg>